<svg xmlns="http://www.w3.org/2000/svg" version="1.1" preserveAspectRatio="xMidYMid meet" viewBox="0 0 1280 60786.3">
  <rect fill="blue" height="0.1" stroke="black" width="12" x="15" y="60486.2"/>
  <text x="15" y="60491.3" font-family="Tahoma" font-size="12" transform="rotate(90 15,60491.3)" text-rendering="optimizeSpeed" fill="#000000">HP-UX (PA_RISC2.0W) (1)</text>
  <rect fill="blue" height="0.1" stroke="black" width="12" x="30" y="60486.2"/>
  <text x="30" y="60491.3" font-family="Tahoma" font-size="12" transform="rotate(90 30,60491.3)" text-rendering="optimizeSpeed" fill="#000000">Linux (e2k) (1)</text>
  <rect fill="blue" height="0.1" stroke="black" width="12" x="45" y="60486.2"/>
  <text x="45" y="60491.3" font-family="Tahoma" font-size="12" transform="rotate(90 45,60491.3)" text-rendering="optimizeSpeed" fill="#000000">Linux (zArch_64) (1)</text>
  <rect fill="blue" height="0.1" stroke="black" width="12" x="60" y="60486.2"/>
  <text x="60" y="60491.3" font-family="Tahoma" font-size="12" transform="rotate(90 60,60491.3)" text-rendering="optimizeSpeed" fill="#000000">NetBSD (i386) (1)</text>
  <rect fill="blue" height="0.1" stroke="black" width="12" x="75" y="60486.2"/>
  <text x="75" y="60491.3" font-family="Tahoma" font-size="12" transform="rotate(90 75,60491.3)" text-rendering="optimizeSpeed" fill="#000000">OS/400 (ppc) (1)</text>
  <rect fill="blue" height="0.1" stroke="black" width="12" x="90" y="60486.2"/>
  <text x="90" y="60491.3" font-family="Tahoma" font-size="12" transform="rotate(90 90,60491.3)" text-rendering="optimizeSpeed" fill="#000000">OpenVMS (x86_64) (1)</text>
  <rect fill="blue" height="0.1" stroke="black" width="12" x="105" y="60486.2"/>
  <text x="105" y="60491.3" font-family="Tahoma" font-size="12" transform="rotate(90 105,60491.3)" text-rendering="optimizeSpeed" fill="#000000">QNX (amd64) (1)</text>
  <rect fill="blue" height="0.1" stroke="black" width="12" x="120" y="60486.2"/>
  <text x="120" y="60491.3" font-family="Tahoma" font-size="12" transform="rotate(90 120,60491.3)" text-rendering="optimizeSpeed" fill="#000000">Windows Server 2022 (aarch64) (1)</text>
  <rect fill="blue" height="0.1" stroke="black" width="12" x="135" y="60486.2"/>
  <text x="135" y="60491.3" font-family="Tahoma" font-size="12" transform="rotate(90 135,60491.3)" text-rendering="optimizeSpeed" fill="#000000">z/OS (s390) (1)</text>
  <rect fill="blue" height="0.2" stroke="black" width="12" x="150" y="60486.1"/>
  <text x="150" y="60491.3" font-family="Tahoma" font-size="12" transform="rotate(90 150,60491.3)" text-rendering="optimizeSpeed" fill="#000000">DragonFlyBSD (amd64) (2)</text>
  <rect fill="blue" height="0.2" stroke="black" width="12" x="165" y="60486.1"/>
  <text x="165" y="60491.3" font-family="Tahoma" font-size="12" transform="rotate(90 165,60491.3)" text-rendering="optimizeSpeed" fill="#000000">Windows XP (amd64) (2)</text>
  <rect fill="blue" height="0.3" stroke="black" width="12" x="180" y="60486.0"/>
  <text x="180" y="60491.3" font-family="Tahoma" font-size="12" transform="rotate(90 180,60491.3)" text-rendering="optimizeSpeed" fill="#000000">HP-UX (ia64) (3)</text>
  <rect fill="blue" height="0.3" stroke="black" width="12" x="195" y="60486.0"/>
  <text x="195" y="60491.3" font-family="Tahoma" font-size="12" transform="rotate(90 195,60491.3)" text-rendering="optimizeSpeed" fill="#000000">NetBSD (amd64) (3)</text>
  <rect fill="blue" height="0.4" stroke="black" width="12" x="210" y="60485.9"/>
  <text x="210" y="60491.3" font-family="Tahoma" font-size="12" transform="rotate(90 210,60491.3)" text-rendering="optimizeSpeed" fill="#000000">NONSTOP_KERNEL (IA64N) (4)</text>
  <rect fill="blue" height="0.4" stroke="black" width="12" x="225" y="60485.9"/>
  <text x="225" y="60491.3" font-family="Tahoma" font-size="12" transform="rotate(90 225,60491.3)" text-rendering="optimizeSpeed" fill="#000000">OpenBSD (aarch64) (4)</text>
  <rect fill="blue" height="0.4" stroke="black" width="12" x="240" y="60485.9"/>
  <text x="240" y="60491.3" font-family="Tahoma" font-size="12" transform="rotate(90 240,60491.3)" text-rendering="optimizeSpeed" fill="#000000">Windows Server 2016 Standard (amd64) (4)</text>
  <rect fill="blue" height="0.5" stroke="black" width="12" x="255" y="60485.8"/>
  <text x="255" y="60491.3" font-family="Tahoma" font-size="12" transform="rotate(90 255,60491.3)" text-rendering="optimizeSpeed" fill="#000000">NONSTOP_KERNEL (amd64) (5)</text>
  <rect fill="blue" height="0.6" stroke="black" width="12" x="270" y="60485.7"/>
  <text x="270" y="60491.3" font-family="Tahoma" font-size="12" transform="rotate(90 270,60491.3)" text-rendering="optimizeSpeed" fill="#000000">Windows 2003 (amd64) (6)</text>
  <rect fill="blue" height="0.7" stroke="black" width="12" x="285" y="60485.6"/>
  <text x="285" y="60491.3" font-family="Tahoma" font-size="12" transform="rotate(90 285,60491.3)" text-rendering="optimizeSpeed" fill="#000000">HP-UX (PA_RISC2.0) (7)</text>
  <rect fill="blue" height="0.7" stroke="black" width="12" x="300" y="60485.6"/>
  <text x="300" y="60491.3" font-family="Tahoma" font-size="12" transform="rotate(90 300,60491.3)" text-rendering="optimizeSpeed" fill="#000000">NONSTOP_KERNEL (x86_64N) (7)</text>
  <rect fill="blue" height="0.7" stroke="black" width="12" x="315" y="60485.6"/>
  <text x="315" y="60491.3" font-family="Tahoma" font-size="12" transform="rotate(90 315,60491.3)" text-rendering="optimizeSpeed" fill="#000000">Windows Server version 2009 (amd64) (7)</text>
  <rect fill="blue" height="1.0" stroke="black" width="12" x="330" y="60485.3"/>
  <text x="330" y="60491.3" font-family="Tahoma" font-size="12" transform="rotate(90 330,60491.3)" text-rendering="optimizeSpeed" fill="#000000">Linux (ppc) (10)</text>
  <rect fill="blue" height="1.0" stroke="black" width="12" x="345" y="60485.3"/>
  <text x="345" y="60491.3" font-family="Tahoma" font-size="12" transform="rotate(90 345,60491.3)" text-rendering="optimizeSpeed" fill="#000000">OS400 (ppc64) (10)</text>
  <rect fill="blue" height="1.2" stroke="black" width="12" x="360" y="60485.1"/>
  <text x="360" y="60491.3" font-family="Tahoma" font-size="12" transform="rotate(90 360,60491.3)" text-rendering="optimizeSpeed" fill="#000000">FreeBSD (aarch64) (12)</text>
  <rect fill="blue" height="1.3" stroke="black" width="12" x="375" y="60485.0"/>
  <text x="375" y="60491.3" font-family="Tahoma" font-size="12" transform="rotate(90 375,60491.3)" text-rendering="optimizeSpeed" fill="#000000">FreeBSD (i386) (13)</text>
  <rect fill="blue" height="2.2" stroke="black" width="12" x="390" y="60484.1"/>
  <text x="390" y="60491.3" font-family="Tahoma" font-size="12" transform="rotate(90 390,60491.3)" text-rendering="optimizeSpeed" fill="#000000">Linux (sw64) (22)</text>
  <rect fill="blue" height="2.4" stroke="black" width="12" x="405" y="60483.9"/>
  <text x="405" y="60491.3" font-family="Tahoma" font-size="12" transform="rotate(90 405,60491.3)" text-rendering="optimizeSpeed" fill="#000000">Linux (x86) (24)</text>
  <rect fill="blue" height="2.4" stroke="black" width="12" x="420" y="60483.9"/>
  <text x="420" y="60491.3" font-family="Tahoma" font-size="12" transform="rotate(90 420,60491.3)" text-rendering="optimizeSpeed" fill="#000000">Windows 11 (aarch64) (24)</text>
  <rect fill="blue" height="2.8" stroke="black" width="12" x="435" y="60483.5"/>
  <text x="435" y="60491.3" font-family="Tahoma" font-size="12" transform="rotate(90 435,60491.3)" text-rendering="optimizeSpeed" fill="#000000">OpenBSD (amd64) (28)</text>
  <rect fill="blue" height="3.0" stroke="black" width="12" x="450" y="60483.3"/>
  <text x="450" y="60491.3" font-family="Tahoma" font-size="12" transform="rotate(90 450,60491.3)" text-rendering="optimizeSpeed" fill="#000000">SunOS (sparc) (30)</text>
  <rect fill="blue" height="3.2" stroke="black" width="12" x="465" y="60483.1"/>
  <text x="465" y="60491.3" font-family="Tahoma" font-size="12" transform="rotate(90 465,60491.3)" text-rendering="optimizeSpeed" fill="#000000">HP-UX (IA64W) (32)</text>
  <rect fill="blue" height="3.2" stroke="black" width="12" x="480" y="60483.1"/>
  <text x="480" y="60491.3" font-family="Tahoma" font-size="12" transform="rotate(90 480,60491.3)" text-rendering="optimizeSpeed" fill="#000000">Windows 8 (x86) (32)</text>
  <rect fill="blue" height="3.5" stroke="black" width="12" x="495" y="60482.8"/>
  <text x="495" y="60491.3" font-family="Tahoma" font-size="12" transform="rotate(90 495,60491.3)" text-rendering="optimizeSpeed" fill="#000000">AIX (ppc) (35)</text>
  <rect fill="blue" height="3.5" stroke="black" width="12" x="510" y="60482.8"/>
  <text x="510" y="60491.3" font-family="Tahoma" font-size="12" transform="rotate(90 510,60491.3)" text-rendering="optimizeSpeed" fill="#000000">Windows Vista (x86) (35)</text>
  <rect fill="blue" height="3.8" stroke="black" width="12" x="525" y="60482.5"/>
  <text x="525" y="60491.3" font-family="Tahoma" font-size="12" transform="rotate(90 525,60491.3)" text-rendering="optimizeSpeed" fill="#000000">Linux (mips64el) (38)</text>
  <rect fill="blue" height="4.2" stroke="black" width="12" x="540" y="60482.1"/>
  <text x="540" y="60491.3" font-family="Tahoma" font-size="12" transform="rotate(90 540,60491.3)" text-rendering="optimizeSpeed" fill="#000000">Linux (ppc64) (42)</text>
  <rect fill="blue" height="4.6" stroke="black" width="12" x="555" y="60481.7"/>
  <text x="555" y="60491.3" font-family="Tahoma" font-size="12" transform="rotate(90 555,60491.3)" text-rendering="optimizeSpeed" fill="#000000">SunOS (x86) (46)</text>
  <rect fill="blue" height="5.4" stroke="black" width="12" x="570" y="60480.9"/>
  <text x="570" y="60491.3" font-family="Tahoma" font-size="12" transform="rotate(90 570,60491.3)" text-rendering="optimizeSpeed" fill="#000000">Windows Server 2008 (x86) (54)</text>
  <rect fill="blue" height="5.6" stroke="black" width="12" x="585" y="60480.7"/>
  <text x="585" y="60491.3" font-family="Tahoma" font-size="12" transform="rotate(90 585,60491.3)" text-rendering="optimizeSpeed" fill="#000000">Linux (riscv64) (56)</text>
  <rect fill="blue" height="5.7" stroke="black" width="12" x="600" y="60480.6"/>
  <text x="600" y="60491.3" font-family="Tahoma" font-size="12" transform="rotate(90 600,60491.3)" text-rendering="optimizeSpeed" fill="#000000">Windows 8 (amd64) (57)</text>
  <rect fill="blue" height="6.4" stroke="black" width="12" x="615" y="60479.9"/>
  <text x="615" y="60491.3" font-family="Tahoma" font-size="12" transform="rotate(90 615,60491.3)" text-rendering="optimizeSpeed" fill="#000000">Windows Server 2008 (amd64) (64)</text>
  <rect fill="blue" height="6.7" stroke="black" width="12" x="630" y="60479.6"/>
  <text x="630" y="60491.3" font-family="Tahoma" font-size="12" transform="rotate(90 630,60491.3)" text-rendering="optimizeSpeed" fill="#000000">Windows 2003 (x86) (67)</text>
  <rect fill="blue" height="9.0" stroke="black" width="12" x="645" y="60477.3"/>
  <text x="645" y="60491.3" font-family="Tahoma" font-size="12" transform="rotate(90 645,60491.3)" text-rendering="optimizeSpeed" fill="#000000">Windows XP (x86) (90)</text>
  <rect fill="blue" height="9.7" stroke="black" width="12" x="660" y="60476.6"/>
  <text x="660" y="60491.3" font-family="Tahoma" font-size="12" transform="rotate(90 660,60491.3)" text-rendering="optimizeSpeed" fill="#000000">OS/400 (ppc64) (97)</text>
  <rect fill="blue" height="10.3" stroke="black" width="12" x="675" y="60476.0"/>
  <text x="675" y="60491.3" font-family="Tahoma" font-size="12" transform="rotate(90 675,60491.3)" text-rendering="optimizeSpeed" fill="#000000">Linux (loongarch64) (103)</text>
  <rect fill="blue" height="15.0" stroke="black" width="12" x="690" y="60471.3"/>
  <text x="690" y="60491.3" font-family="Tahoma" font-size="12" transform="rotate(90 690,60491.3)" text-rendering="optimizeSpeed" fill="#000000">HP-UX (IA64N) (150)</text>
  <rect fill="blue" height="16.5" stroke="black" width="12" x="705" y="60469.8"/>
  <text x="705" y="60491.3" font-family="Tahoma" font-size="12" transform="rotate(90 705,60491.3)" text-rendering="optimizeSpeed" fill="#000000">Windows Server 2012 (x86) (165)</text>
  <rect fill="blue" height="18.5" stroke="black" width="12" x="720" y="60467.8"/>
  <text x="720" y="60491.3" font-family="Tahoma" font-size="12" transform="rotate(90 720,60491.3)" text-rendering="optimizeSpeed" fill="#000000">Windows 8.1 (x86) (185)</text>
  <rect fill="blue" height="20.9" stroke="black" width="12" x="735" y="60465.4"/>
  <text x="735" y="60491.3" font-family="Tahoma" font-size="12" transform="rotate(90 735,60491.3)" text-rendering="optimizeSpeed" fill="#000000">Windows Server 2022 (x86) (209)</text>
  <rect fill="blue" height="22.9" stroke="black" width="12" x="750" y="60463.4"/>
  <text x="750" y="60491.3" font-family="Tahoma" font-size="12" transform="rotate(90 750,60491.3)" text-rendering="optimizeSpeed" fill="#000000">z/OS (s390x) (229)</text>
  <rect fill="blue" height="27.0" stroke="black" width="12" x="765" y="60459.3"/>
  <text x="765" y="60491.3" font-family="Tahoma" font-size="12" transform="rotate(90 765,60491.3)" text-rendering="optimizeSpeed" fill="#000000">Linux (s390x) (270)</text>
  <rect fill="blue" height="27.3" stroke="black" width="12" x="780" y="60459.0"/>
  <text x="780" y="60491.3" font-family="Tahoma" font-size="12" transform="rotate(90 780,60491.3)" text-rendering="optimizeSpeed" fill="#000000">SunOS (amd64) (273)</text>
  <rect fill="blue" height="28.3" stroke="black" width="12" x="795" y="60458.0"/>
  <text x="795" y="60491.3" font-family="Tahoma" font-size="12" transform="rotate(90 795,60491.3)" text-rendering="optimizeSpeed" fill="#000000">Windows 11 (x86) (283)</text>
  <rect fill="blue" height="30.9" stroke="black" width="12" x="810" y="60455.4"/>
  <text x="810" y="60491.3" font-family="Tahoma" font-size="12" transform="rotate(90 810,60491.3)" text-rendering="optimizeSpeed" fill="#000000">Windows 8.1 (amd64) (309)</text>
  <rect fill="blue" height="41.9" stroke="black" width="12" x="825" y="60444.4"/>
  <text x="825" y="60491.3" font-family="Tahoma" font-size="12" transform="rotate(90 825,60491.3)" text-rendering="optimizeSpeed" fill="#000000">Windows NT (unknown) (x86) (419)</text>
  <rect fill="blue" height="45.7" stroke="black" width="12" x="840" y="60440.6"/>
  <text x="840" y="60491.3" font-family="Tahoma" font-size="12" transform="rotate(90 840,60491.3)" text-rendering="optimizeSpeed" fill="#000000">Windows Server 2008 R2 (x86) (457)</text>
  <rect fill="blue" height="46.1" stroke="black" width="12" x="855" y="60440.2"/>
  <text x="855" y="60491.3" font-family="Tahoma" font-size="12" transform="rotate(90 855,60491.3)" text-rendering="optimizeSpeed" fill="#000000">Linux (ppc64le) (461)</text>
  <rect fill="blue" height="53.7" stroke="black" width="12" x="870" y="60432.6"/>
  <text x="870" y="60491.3" font-family="Tahoma" font-size="12" transform="rotate(90 870,60491.3)" text-rendering="optimizeSpeed" fill="#000000">Windows Server 2012 (amd64) (537)</text>
  <rect fill="blue" height="58.5" stroke="black" width="12" x="885" y="60427.8"/>
  <text x="885" y="60491.3" font-family="Tahoma" font-size="12" transform="rotate(90 885,60491.3)" text-rendering="optimizeSpeed" fill="#000000">FreeBSD (amd64) (585)</text>
  <rect fill="blue" height="61.9" stroke="black" width="12" x="900" y="60424.4"/>
  <text x="900" y="60491.3" font-family="Tahoma" font-size="12" transform="rotate(90 900,60491.3)" text-rendering="optimizeSpeed" fill="#000000">SunOS (sparcv9) (619)</text>
  <rect fill="blue" height="84.7" stroke="black" width="12" x="915" y="60401.6"/>
  <text x="915" y="60491.3" font-family="Tahoma" font-size="12" transform="rotate(90 915,60491.3)" text-rendering="optimizeSpeed" fill="#000000">Windows 7 (x86) (847)</text>
  <rect fill="blue" height="98.0" stroke="black" width="12" x="930" y="60388.3"/>
  <text x="930" y="60491.3" font-family="Tahoma" font-size="12" transform="rotate(90 930,60491.3)" text-rendering="optimizeSpeed" fill="#000000">Windows NT (unknown) (amd64) (980)</text>
  <rect fill="blue" height="130.6" stroke="black" width="12" x="945" y="60355.7"/>
  <text x="945" y="60491.3" font-family="Tahoma" font-size="12" transform="rotate(90 945,60491.3)" text-rendering="optimizeSpeed" fill="#000000">Windows Server 2012 R2 (x86) (1306)</text>
  <rect fill="blue" height="132.5" stroke="black" width="12" x="960" y="60353.8"/>
  <text x="960" y="60491.3" font-family="Tahoma" font-size="12" transform="rotate(90 960,60491.3)" text-rendering="optimizeSpeed" fill="#000000">Linux (arm) (1325)</text>
  <rect fill="blue" height="140.7" stroke="black" width="12" x="975" y="60345.6"/>
  <text x="975" y="60491.3" font-family="Tahoma" font-size="12" transform="rotate(90 975,60491.3)" text-rendering="optimizeSpeed" fill="#000000">Windows Server 2019 (x86) (1407)</text>
  <rect fill="blue" height="151.8" stroke="black" width="12" x="990" y="60334.5"/>
  <text x="990" y="60491.3" font-family="Tahoma" font-size="12" transform="rotate(90 990,60491.3)" text-rendering="optimizeSpeed" fill="#000000">AIX (ppc64) (1518)</text>
  <rect fill="blue" height="169.1" stroke="black" width="12" x="1005" y="60317.2"/>
  <text x="1005" y="60491.3" font-family="Tahoma" font-size="12" transform="rotate(90 1005,60491.3)" text-rendering="optimizeSpeed" fill="#000000">Windows Server 2008 R2 (amd64) (1691)</text>
  <rect fill="blue" height="229.1" stroke="black" width="12" x="1020" y="60257.2"/>
  <text x="1020" y="60491.3" font-family="Tahoma" font-size="12" transform="rotate(90 1020,60491.3)" text-rendering="optimizeSpeed" fill="#000000">Windows 7 (amd64) (2291)</text>
  <rect fill="blue" height="281.3" stroke="black" width="12" x="1035" y="60205.0"/>
  <text x="1035" y="60491.3" font-family="Tahoma" font-size="12" transform="rotate(90 1035,60491.3)" text-rendering="optimizeSpeed" fill="#000000">Windows Server 2016 (x86) (2813)</text>
  <rect fill="blue" height="288.0" stroke="black" width="12" x="1050" y="60198.3"/>
  <text x="1050" y="60491.3" font-family="Tahoma" font-size="12" transform="rotate(90 1050,60491.3)" text-rendering="optimizeSpeed" fill="#000000">Linux (i386) (2880)</text>
  <rect fill="blue" height="435.3" stroke="black" width="12" x="1065" y="60051.0"/>
  <text x="1065" y="60491.3" font-family="Tahoma" font-size="12" transform="rotate(90 1065,60491.3)" text-rendering="optimizeSpeed" fill="#000000">Windows 10 (x86) (4353)</text>
  <rect fill="blue" height="710.8" stroke="black" width="12" x="1080" y="59775.5"/>
  <text x="1080" y="60491.3" font-family="Tahoma" font-size="12" transform="rotate(90 1080,60491.3)" text-rendering="optimizeSpeed" fill="#000000">Windows Server 2012 R2 (amd64) (7108)</text>
  <rect fill="blue" height="1238.7" stroke="black" width="12" x="1095" y="59247.6"/>
  <text x="1095" y="60491.3" font-family="Tahoma" font-size="12" transform="rotate(90 1095,60491.3)" text-rendering="optimizeSpeed" fill="#000000">Mac OS X (aarch64) (12387)</text>
  <rect fill="blue" height="1404.2" stroke="black" width="12" x="1110" y="59082.1"/>
  <text x="1110" y="60491.3" font-family="Tahoma" font-size="12" transform="rotate(90 1110,60491.3)" text-rendering="optimizeSpeed" fill="#000000">Linux (aarch64) (14042)</text>
  <rect fill="blue" height="1500.2" stroke="black" width="12" x="1125" y="58986.1"/>
  <text x="1125" y="60491.3" font-family="Tahoma" font-size="12" transform="rotate(90 1125,60491.3)" text-rendering="optimizeSpeed" fill="#000000">Windows Server 2022 (amd64) (15002)</text>
  <rect fill="blue" height="1674.9" stroke="black" width="12" x="1140" y="58811.4"/>
  <text x="1140" y="60491.3" font-family="Tahoma" font-size="12" transform="rotate(90 1140,60491.3)" text-rendering="optimizeSpeed" fill="#000000">Mac OS X (x86_64) (16749)</text>
  <rect fill="blue" height="1749.1" stroke="black" width="12" x="1155" y="58737.2"/>
  <text x="1155" y="60491.3" font-family="Tahoma" font-size="12" transform="rotate(90 1155,60491.3)" text-rendering="optimizeSpeed" fill="#000000">Windows 11 (amd64) (17491)</text>
  <rect fill="blue" height="2958.0" stroke="black" width="12" x="1170" y="57528.3"/>
  <text x="1170" y="60491.3" font-family="Tahoma" font-size="12" transform="rotate(90 1170,60491.3)" text-rendering="optimizeSpeed" fill="#000000">Windows Server 2016 (amd64) (29580)</text>
  <rect fill="blue" height="3453.9" stroke="black" width="12" x="1185" y="57032.4"/>
  <text x="1185" y="60491.3" font-family="Tahoma" font-size="12" transform="rotate(90 1185,60491.3)" text-rendering="optimizeSpeed" fill="#000000">Windows Server 2019 (amd64) (34539)</text>
  <rect fill="blue" height="6671.1" stroke="black" width="12" x="1200" y="53815.2"/>
  <text x="1200" y="60491.3" font-family="Tahoma" font-size="12" transform="rotate(90 1200,60491.3)" text-rendering="optimizeSpeed" fill="#000000">Windows 10 (amd64) (66711)</text>
  <rect fill="blue" height="36477.4" stroke="black" width="12" x="1215" y="24008.9"/>
  <text x="1215" y="60491.3" font-family="Tahoma" font-size="12" transform="rotate(90 1215,60491.3)" text-rendering="optimizeSpeed" fill="#000000">N/A (364774)</text>
  <rect fill="blue" height="60436.3" stroke="black" width="12" x="1230" y="50.0"/>
  <text x="1230" y="60491.3" font-family="Tahoma" font-size="12" transform="rotate(90 1230,60491.3)" text-rendering="optimizeSpeed" fill="#000000">Linux (amd64) (604363)</text>
  <text x="10" y="40" font-family="Tahoma" font-size="20" text-rendering="optimizeSpeed" fill="#000000">Nodes (total: 1210392)</text>
</svg>
